<svg width="94" height="22" viewBox="0 0 94 22" fill="none" xmlns="http://www.w3.org/2000/svg">
<path d="M12.6738 16.8009H5.74219L4.23828 21.586H0L6.84961 1.85753H11.7031L18.5664 21.586H14.1777L12.6738 16.8009ZM6.63086 13.711H11.7852L9.25586 5.63097H9.16016L6.63086 13.711Z" fill="black"/>
<path d="M20.4121 0.914169H24.4043V21.586H20.4121V0.914169Z" fill="black"/>
<path d="M32.2793 3.1837V6.53331H35.0684V9.55479H32.2793V16.8692C32.2793 18.0177 32.8763 18.5919 34.0703 18.5919C34.4622 18.5919 34.7949 18.5691 35.0684 18.5235V21.4767C34.5215 21.586 33.8789 21.6407 33.1406 21.6407C31.3997 21.6407 30.1556 21.3217 29.4082 20.6837C28.6608 20.0457 28.2871 18.9929 28.2871 17.5255V9.55479H26.25V6.53331H28.2871V3.1837H32.2793Z" fill="black"/>
<path d="M43.8594 9.25401C42.9479 9.25401 42.1868 9.55479 41.5762 10.1564C40.9746 10.7579 40.6374 11.5418 40.5645 12.5079H47.0586C47.0221 11.5235 46.7122 10.7351 46.1289 10.1427C45.5456 9.55024 44.7891 9.25401 43.8594 9.25401ZM50.791 16.9923C50.5723 18.4506 49.8385 19.6219 48.5898 20.506C47.3411 21.3992 45.8008 21.8458 43.9688 21.8458C41.681 21.8458 39.8763 21.1577 38.5547 19.7814C37.2422 18.4051 36.5859 16.5183 36.5859 14.1212C36.5859 11.7241 37.2376 9.81912 38.541 8.40636C39.8535 6.98448 41.6126 6.27354 43.8184 6.27354C45.9876 6.27354 47.7103 6.94802 48.9863 8.29698C50.2715 9.64594 50.9141 11.4643 50.9141 13.7521V14.9825H40.5234V15.2286C40.5234 16.3133 40.847 17.1928 41.4941 17.8673C42.1413 18.5327 42.9889 18.8653 44.0371 18.8653C44.7936 18.8653 45.4453 18.6967 45.9922 18.3595C46.5482 18.0314 46.9219 17.5756 47.1133 16.9923H50.791Z" fill="black"/>
<path d="M53.0605 6.53331H56.916V9.22667H56.998C57.5176 7.31261 58.7116 6.35558 60.5801 6.35558C61.0267 6.35558 61.4004 6.40571 61.7012 6.50597V10.047C61.3457 9.88292 60.8672 9.80089 60.2656 9.80089C59.2539 9.80089 58.4655 10.0971 57.9004 10.6896C57.3353 11.282 57.0527 12.1069 57.0527 13.1642V21.586H53.0605V6.53331Z" fill="black"/>
<path d="M63.4512 6.53331H67.3066V9.22667H67.3887C68.2728 7.28526 69.8861 6.31456 72.2285 6.31456C73.8965 6.31456 75.209 6.8113 76.166 7.80479C77.1139 8.79828 77.5879 10.1746 77.5879 11.9337V21.586H73.5957V12.7677C73.5957 11.7651 73.3405 10.9949 72.8301 10.4571C72.3105 9.91026 71.5814 9.63683 70.6426 9.63683C69.6855 9.63683 68.9154 9.94672 68.332 10.5665C67.7396 11.1863 67.4434 11.9975 67.4434 13.0001V21.586H63.4512V6.53331Z" fill="black"/>
<path d="M85.9961 18.8517C86.9349 18.8517 87.7188 18.5919 88.3477 18.0724C88.9948 17.5437 89.3184 16.8738 89.3184 16.0626V14.9552L86.1602 15.1739C84.4557 15.2833 83.6035 15.9077 83.6035 17.047C83.6035 17.603 83.8223 18.0405 84.2598 18.3595C84.6881 18.6876 85.2669 18.8517 85.9961 18.8517ZM84.6973 21.7638C83.2298 21.7638 82.0221 21.3491 81.0742 20.5196C80.1081 19.672 79.625 18.5828 79.625 17.2521C79.625 15.894 80.1354 14.8276 81.1562 14.0528C82.1589 13.2963 83.6263 12.8588 85.5586 12.7403L89.3184 12.5079V11.5099C89.3184 10.7898 89.0859 10.2338 88.6211 9.8419C88.1562 9.45909 87.5091 9.26768 86.6797 9.26768C85.9688 9.26768 85.3717 9.44086 84.8887 9.78722C84.4147 10.1245 84.1276 10.5711 84.0273 11.1271H80.377C80.4316 9.68696 81.0514 8.52029 82.2363 7.62706C83.4303 6.72472 84.9661 6.27354 86.8438 6.27354C88.776 6.27354 90.3255 6.72927 91.4922 7.64073C92.6589 8.55219 93.2422 9.75987 93.2422 11.2638V21.586H89.3867V19.2618H89.3047C88.9036 20.0366 88.2747 20.6518 87.418 21.1075C86.5885 21.545 85.6816 21.7638 84.6973 21.7638Z" fill="black"/>
</svg>
