<svg width="17" height="14" viewBox="0 0 17 14" fill="none" xmlns="http://www.w3.org/2000/svg">
<path d="M16.2527 1.34535C16.6471 1.34535 16.9792 1.68168 16.9792 2.08108C16.9792 2.48048 16.6471 2.81682 16.2527 2.81682H14.9035C14.6545 2.81682 14.4261 2.94294 14.3016 3.15315C13.9487 3.76276 13.2845 4.16216 12.5372 4.16216C11.79 4.16216 11.1465 3.76276 10.7729 3.15315C10.6484 2.94294 10.3993 2.81682 10.1709 2.81682H0.726496C0.332112 2.81682 0 2.48048 0 2.08108C0 1.68168 0.332112 1.34535 0.726496 1.34535H10.1917C10.4408 1.34535 10.6691 1.21922 10.7937 1.00901C11.1465 0.3994 11.8107 0 12.558 0C13.3053 0 13.9487 0.3994 14.3223 1.00901C14.4469 1.21922 14.696 1.34535 14.9243 1.34535H16.2527ZM12.558 9.83784C11.8107 9.83784 11.1673 10.2372 10.7937 10.8468C10.6691 11.0571 10.42 11.1832 10.1917 11.1832H0.726496C0.332112 11.1832 0 11.5195 0 11.9189C0 12.3183 0.332112 12.6547 0.726496 12.6547H10.1917C10.4408 12.6547 10.6691 12.7808 10.7937 12.991C11.1465 13.6006 11.8107 14 12.558 14C13.3053 14 13.9487 13.6006 14.3223 12.991C14.4469 12.7808 14.696 12.6547 14.9243 12.6547H16.2735C16.6679 12.6547 17 12.3183 17 11.9189C17 11.5195 16.6679 11.1832 16.2735 11.1832H14.9243C14.6752 11.1832 14.4469 11.0571 14.3223 10.8468C13.9487 10.2372 13.3053 9.83784 12.558 9.83784ZM4.62882 4.91892C3.88156 4.91892 3.2381 5.31832 2.86447 5.92793C2.73993 6.13814 2.49084 6.26426 2.26252 6.26426H0.726496C0.332112 6.26426 0 6.6006 0 7C0 7.3994 0.332112 7.73574 0.726496 7.73574H2.26252C2.5116 7.73574 2.73993 7.86186 2.86447 8.07207C3.21734 8.68168 3.88156 9.08108 4.62882 9.08108C5.37607 9.08108 6.01954 8.68168 6.39316 8.07207C6.5177 7.86186 6.76679 7.73574 6.99512 7.73574H16.2735C16.6679 7.73574 17 7.3994 17 7C17 6.6006 16.6679 6.26426 16.2735 6.26426H6.99512C6.74603 6.26426 6.5177 6.13814 6.39316 5.92793C6.01954 5.31832 5.37607 4.91892 4.62882 4.91892Z" fill="#0066EB"/>
</svg>
