<svg width="30" height="23" viewBox="0 0 49 38" xmlns="http://www.w3.org/2000/svg">
<path d="M9.70245 1L9.5394 1.3817L1.06114 20.6674L1 20.7879V20.9286C1 25.9037 5.0968 29.9286 10.1304 29.9286C15.1641 29.9286 19.2609 25.9037 19.2609 20.9286V20.7879L19.1997 20.6674L11.1087 2.28571H23.8261V35.7143H17.3043V37H31.6522V35.7143H25.1304V1.64286V1H24.4783H10.1304H9.70245ZM29.0435 1V2.28571H37.8478L29.7568 20.6674L29.6957 20.7879V20.9286C29.6957 25.9037 33.7924 29.9286 38.8261 29.9286C43.8597 29.9286 47.9565 25.9037 47.9565 20.9286V20.7879L47.8954 20.6674L39.4171 1.3817L39.2541 1H38.8261H29.0435ZM10.1304 3.25L17.6101 20.2857H2.65082L10.1304 3.25ZM38.8261 3.25L46.3057 20.2857H31.3465L38.8261 3.25ZM2.34511 21.5714H17.9158C17.5841 25.5455 14.2396 28.6429 10.1304 28.6429C6.02128 28.6429 2.67681 25.5455 2.34511 21.5714ZM31.0408 21.5714H46.6114C46.2797 25.5455 42.9352 28.6429 38.8261 28.6429C34.7169 28.6429 31.3725 25.5455 31.0408 21.5714Z" fill="#000000" stroke="#D4D4D4" stroke-width="0.5"/>
</svg>
