<svg width="40" height="40" viewBox="0 0 40 40" fill="none" xmlns="http://www.w3.org/2000/svg">
<path fill-rule="evenodd" clip-rule="evenodd" d="M20 40C31.0457 40 40 31.0457 40 20C40 8.95431 31.0457 0 20 0C8.95431 0 0 8.95431 0 20C0 31.0457 8.95431 40 20 40Z" fill="#3C3C3E"/>
<path fill-rule="evenodd" clip-rule="evenodd" d="M30.0533 22.2646C30.2076 21.5697 30.2878 20.85 30.2878 20.1106C30.2878 14.5711 25.7334 10.0789 20.1129 10.0789C19.5208 10.0789 18.9401 10.1296 18.3731 10.226C17.4638 9.66092 16.3876 9.33325 15.2348 9.33325C11.9749 9.33325 9.33331 11.9373 9.33331 15.1522C9.33331 16.2255 9.62933 17.2295 10.1436 18.0951C10.0094 18.7455 9.93789 19.4206 9.93789 20.1106C9.93789 25.6526 14.4936 30.1435 20.1129 30.1435C20.7501 30.1435 21.3722 30.0854 21.9768 29.9754C22.8084 30.4156 23.7566 30.6666 24.7664 30.6666C28.0251 30.6666 30.6666 28.0613 30.6666 24.8489C30.6666 23.9202 30.4459 23.0436 30.0533 22.2646Z" fill="#1D1D1F"/>
<path fill-rule="evenodd" clip-rule="evenodd" d="M25.3321 24.9058C24.8617 25.5636 24.1668 26.083 23.2637 26.4514C22.3719 26.8175 21.3032 27.0042 20.0853 27.0042C18.624 27.0042 17.3986 26.7507 16.4415 26.2499C15.7579 25.8864 15.1947 25.3942 14.767 24.7834C14.3343 24.1701 14.116 23.5605 14.116 22.9707C14.116 22.6047 14.259 22.2857 14.54 22.0248C14.8184 21.7651 15.1759 21.6353 15.6024 21.6353C15.9511 21.6353 16.2534 21.7379 16.498 21.9419C16.7325 22.1385 16.9332 22.4291 17.095 22.8013C17.2756 23.2093 17.4713 23.5531 17.6783 23.8214C17.879 24.0835 18.1662 24.3024 18.5325 24.4743C18.9012 24.6449 19.3992 24.7339 20.01 24.7339C20.8517 24.7339 21.5416 24.5559 22.0596 24.2072C22.5676 23.8672 22.8134 23.4566 22.8134 22.9546C22.8134 22.5602 22.6842 22.2486 22.4208 22.0038C22.1424 21.749 21.7774 21.5512 21.3346 21.4127C20.8718 21.2717 20.2446 21.1172 19.4682 20.9564C18.4108 20.7339 17.514 20.4705 16.8015 20.17C16.0715 19.8646 15.4832 19.4405 15.053 18.91C14.6165 18.3697 14.3945 17.6933 14.3945 16.8982C14.3945 16.1415 14.6265 15.4577 15.0856 14.8692C15.5397 14.2843 16.2045 13.8268 17.0612 13.5164C17.9053 13.2085 18.9088 13.0527 20.0464 13.0527C20.9545 13.0527 21.7535 13.1566 22.4208 13.3619C23.0919 13.5671 23.6563 13.8441 24.1003 14.1866C24.5481 14.5328 24.8818 14.9001 25.09 15.2834C25.3007 15.6704 25.4086 16.055 25.4086 16.4271C25.4086 16.7857 25.2681 17.1122 24.9909 17.3953C24.7125 17.6822 24.36 17.8269 23.9461 17.8269C23.5698 17.8269 23.2738 17.7354 23.0706 17.5573C22.8799 17.3904 22.6817 17.1307 22.4622 16.7598C22.2088 16.2849 21.9015 15.9103 21.5491 15.6457C21.2067 15.3885 20.6359 15.2599 19.8495 15.2599C19.122 15.2599 18.5274 15.4033 18.0872 15.689C17.6632 15.9622 17.4563 16.2775 17.4563 16.6509C17.4563 16.8785 17.5227 17.0701 17.6607 17.2333C17.8037 17.4089 18.0082 17.5598 18.2665 17.6884C18.5337 17.8207 18.8097 17.927 19.0856 18.0012C19.3678 18.0791 19.842 18.1941 20.4929 18.3425C21.317 18.5156 22.0734 18.7122 22.7419 18.9236C23.4205 19.1363 24.005 19.3985 24.4842 19.7063C24.9708 20.0192 25.3559 20.4198 25.6306 20.8996C25.9053 21.383 26.0445 21.9766 26.0445 22.6678C26.0445 23.4937 25.8037 24.2468 25.3321 24.9058Z" fill="#3C3C3E"/>
</svg>
