<svg width="40" height="40" viewBox="0 0 40 40" fill="none" xmlns="http://www.w3.org/2000/svg">
<path fill-rule="evenodd" clip-rule="evenodd" d="M20 40C31.0457 40 40 31.0457 40 20C40 8.95431 31.0457 0 20 0C8.95431 0 0 8.95431 0 20C0 31.0457 8.95431 40 20 40ZM16.3334 29.1668C16.8198 29.1668 17.0421 28.9504 17.3107 28.6888L17.3334 28.6668L19.7356 26.3309L24.7334 30.0232C25.6531 30.5307 26.3169 30.268 26.546 29.1693L29.8269 13.7088C30.1628 12.3621 29.3135 11.7513 28.4336 12.1508L9.16863 19.5793C7.85361 20.1067 7.86128 20.8404 8.92893 21.1673L13.8728 22.7103L25.3183 15.4895C25.8586 15.1619 26.3545 15.338 25.9475 15.6992L16.6738 24.068L16.6737 24.068L16.6737 24.0681L16.6734 24.0684L16.6736 24.0686L16.3334 29.1668Z" fill="#3C3C3E"/>
</svg>
