<svg width="32" height="45" viewBox="0 0 32 45" fill="none" xmlns="http://www.w3.org/2000/svg">
<path d="M21.2385 29.8626C22.7063 29.8626 24.0335 30.465 24.9859 31.4318V31.4477C25.954 32.4146 26.5474 33.7619 26.5474 35.2519C26.5474 35.4738 26.5317 35.7115 26.5005 35.9334H30.1542V1.20465H1.84576V35.9334H15.9766C15.9453 35.7115 15.9297 35.4738 15.9297 35.2519C15.9297 33.7619 16.5231 32.4146 17.4911 31.4318C18.4436 30.465 19.7708 29.8626 21.2385 29.8626ZM5.9679 32.3353C5.64 32.3353 5.37456 32.0659 5.37456 31.733C5.37456 31.416 5.64 31.1465 5.9679 31.1465H10.6834C11.0113 31.1465 11.2767 31.416 11.2767 31.733C11.2767 32.0659 11.0113 32.3353 10.6834 32.3353H5.9679ZM5.9679 15.391C5.64 15.391 5.37456 15.1215 5.37456 14.7887C5.37456 14.4558 5.64 14.1863 5.9679 14.1863H26.0321C26.3444 14.1863 26.6098 14.4558 26.6098 14.7887C26.6098 15.1215 26.3444 15.391 26.0321 15.391H5.9679ZM5.9679 20.0828C5.64 20.0828 5.37456 19.8133 5.37456 19.4804C5.37456 19.1634 5.64 18.894 5.9679 18.894H16.5855C16.9134 18.894 17.1789 19.1634 17.1789 19.4804C17.1789 19.8133 16.9134 20.0828 16.5855 20.0828H5.9679ZM5.9679 5.99155C5.64 5.99155 5.37456 5.72209 5.37456 5.38922C5.37456 5.05636 5.64 4.7869 5.9679 4.7869H26.0321C26.3444 4.7869 26.6098 5.05636 26.6098 5.38922C26.6098 5.72209 26.3444 5.99155 26.0321 5.99155H5.9679ZM5.9679 10.6833C5.64 10.6833 5.37456 10.4139 5.37456 10.081C5.37456 9.764 5.64 9.49454 5.9679 9.49454H26.0321C26.3444 9.49454 26.6098 9.764 26.6098 10.081C26.6098 10.4139 26.3444 10.6833 26.0321 10.6833H5.9679ZM26.2195 37.1381C26.0165 37.677 25.7198 38.1842 25.3607 38.6439V44.3977C25.3607 44.7305 25.0952 45 24.783 45C24.6737 45 24.5644 44.9683 24.4863 44.9049L21.3166 43.3357L17.944 44.9366C17.6473 45.0793 17.3038 44.9366 17.1633 44.6513C17.132 44.572 17.1164 44.4769 17.1164 44.3977L17.1008 38.628C16.7573 38.1842 16.4606 37.677 16.2576 37.1381H1.25243C0.924529 37.1381 0.659088 36.8686 0.659088 36.5358V0.602325C0.659088 0.269461 0.924529 0 1.25243 0H30.7476C31.0755 0 31.3409 0.269461 31.3409 0.602325V36.5358C31.3409 36.8686 31.0755 37.1381 30.7476 37.1381H26.2195ZM24.1896 39.7376C23.3465 40.3082 22.3315 40.6411 21.2385 40.6411C20.1456 40.6411 19.1306 40.3082 18.2875 39.7376V43.4625L21.0512 42.1469C21.2073 42.0518 21.4103 42.0518 21.5821 42.131L24.1896 43.4308V39.7376ZM24.1584 32.2878C23.4089 31.5269 22.3784 31.0514 21.2385 31.0514C20.0987 31.0514 19.0682 31.5269 18.3187 32.2878C17.5692 33.0486 17.1008 34.0948 17.1008 35.2519C17.1008 36.3931 17.5536 37.4234 18.2875 38.1842L18.3187 38.2159C19.0682 38.9768 20.0987 39.4364 21.2385 39.4364C22.3628 39.4364 23.3933 38.9768 24.1272 38.2476L24.1584 38.2159C24.9079 37.4551 25.3607 36.4089 25.3607 35.2519C25.3607 34.0948 24.9079 33.0486 24.1584 32.2878Z" fill="black"/>
</svg>
