<svg width="77" height="18" viewBox="0 0 77 18" fill="none" xmlns="http://www.w3.org/2000/svg">
<path d="M10.4177 13.6739H4.71999L3.4838 17.6072H0L5.63028 1.39066H9.6198L15.2613 17.6072H11.6539L10.4177 13.6739ZM5.45047 11.1341H9.68723L7.60818 4.49237H7.52951L5.45047 11.1341Z" fill="white"/>
<path d="M16.7785 0.615234H20.06V17.6072H16.7785V0.615234Z" fill="white"/>
<path d="M26.5331 2.48076V5.23409H28.8257V7.7177H26.5331V13.7301C26.5331 14.6741 27.0238 15.1461 28.0053 15.1461C28.3275 15.1461 28.6009 15.1273 28.8257 15.0899V17.5173C28.3762 17.6072 27.848 17.6522 27.2411 17.6522C25.8101 17.6522 24.7875 17.3899 24.1731 16.8655C23.5588 16.3411 23.2516 15.4757 23.2516 14.2695V7.7177H21.5771V5.23409H23.2516V2.48076H26.5331Z" fill="white"/>
<path d="M36.0518 7.47046C35.3026 7.47046 34.677 7.7177 34.175 8.21218C33.6805 8.70665 33.4033 9.35097 33.3434 10.1451H38.6815C38.6515 9.33598 38.3968 8.68792 37.9173 8.20094C37.4378 7.71395 36.816 7.47046 36.0518 7.47046ZM41.7495 13.8312C41.5697 15.0299 40.9665 15.9927 39.9401 16.7194C38.9137 17.4536 37.6476 17.8207 36.1417 17.8207C34.2612 17.8207 32.7777 17.2551 31.6914 16.1238C30.6125 14.9925 30.0731 13.4416 30.0731 11.4712C30.0731 9.50081 30.6088 7.93497 31.6801 6.7737C32.759 5.60494 34.205 5.02056 36.018 5.02056C37.8012 5.02056 39.2172 5.57497 40.266 6.6838C41.3224 7.79262 41.8506 9.28729 41.8506 11.1678V12.1792H33.3097V12.3815C33.3097 13.2731 33.5756 13.996 34.1076 14.5505C34.6395 15.0974 35.3363 15.3708 36.1979 15.3708C36.8197 15.3708 37.3554 15.2322 37.8049 14.955C38.2619 14.6853 38.5691 14.3107 38.7264 13.8312H41.7495Z" fill="white"/>
<path d="M43.615 5.23409H46.7841V7.44799H46.8516C47.2786 5.87466 48.2601 5.08799 49.7959 5.08799C50.163 5.08799 50.4702 5.1292 50.7175 5.21161V8.12227C50.4253 7.98741 50.0319 7.91999 49.5375 7.91999C48.7058 7.91999 48.0578 8.16348 47.5933 8.65046C47.1288 9.13744 46.8965 9.81548 46.8965 10.6846V17.6072H43.615V5.23409Z" fill="white"/>
<path d="M52.1559 5.23409H55.3251V7.44799H55.3925C56.1192 5.85218 57.4453 5.05428 59.3708 5.05428C60.7418 5.05428 61.8207 5.46259 62.6073 6.27923C63.3865 7.09586 63.7761 8.22716 63.7761 9.67313V17.6072H60.4946V10.3586C60.4946 9.53452 60.2848 8.90145 59.8653 8.45941C59.4382 8.00989 58.8388 7.78513 58.0672 7.78513C57.2805 7.78513 56.6474 8.03986 56.1679 8.54932C55.6809 9.05878 55.4375 9.72557 55.4375 10.5497V17.6072H52.1559V5.23409Z" fill="white"/>
<path d="M70.6875 15.3596C71.4592 15.3596 72.1035 15.1461 72.6205 14.719C73.1524 14.2845 73.4184 13.7338 73.4184 13.067V12.1567L70.8224 12.3366C69.4214 12.4265 68.7209 12.9397 68.7209 13.8762C68.7209 14.3332 68.9007 14.6928 69.2603 14.955C69.6124 15.2247 70.0882 15.3596 70.6875 15.3596ZM69.6199 17.7533C68.4137 17.7533 67.421 17.4124 66.6418 16.7306C65.8477 16.0339 65.4506 15.1386 65.4506 14.0447C65.4506 12.9284 65.8701 12.0519 66.7092 11.415C67.5334 10.7932 68.7396 10.4336 70.3279 10.3362L73.4184 10.1451V9.32475C73.4184 8.73287 73.2273 8.27586 72.8452 7.9537C72.4631 7.63903 71.9312 7.4817 71.2494 7.4817C70.665 7.4817 70.1743 7.62405 69.7772 7.90875C69.3877 8.18595 69.1517 8.55306 69.0692 9.01008H66.0687C66.1136 7.82634 66.6231 6.86735 67.5971 6.13313C68.5785 5.39142 69.8409 5.02056 71.3843 5.02056C72.9726 5.02056 74.2463 5.39516 75.2052 6.14437C76.1642 6.89357 76.6437 7.88627 76.6437 9.12246V17.6072H73.4746V15.6967H73.4071C73.0775 16.3336 72.5605 16.8393 71.8563 17.2139C71.1745 17.5735 70.429 17.7533 69.6199 17.7533Z" fill="white"/>
</svg>
