<svg width="21" height="21" viewBox="0 0 21 21" fill="none" xmlns="http://www.w3.org/2000/svg">
<path d="M19.7623 18.3483L14.3669 12.9529C15.62 11.3401 16.2112 9.31038 16.0202 7.27696C15.8292 5.24355 14.8704 3.35938 13.3389 2.00813C11.8074 0.656886 9.81851 -0.0598341 7.77713 0.00391532C5.73576 0.0676647 3.79544 0.90709 2.35126 2.35126C0.90709 3.79544 0.0676647 5.73576 0.00391532 7.77713C-0.0598341 9.81851 0.656886 11.8074 2.00813 13.3389C3.35938 14.8704 5.24355 15.8292 7.27696 16.0202C9.31038 16.2112 11.3401 15.62 12.9529 14.3669L18.3483 19.7623C18.5369 19.9445 18.7895 20.0453 19.0517 20.043C19.3139 20.0407 19.5648 19.9356 19.7502 19.7502C19.9356 19.5648 20.0407 19.3139 20.043 19.0517C20.0453 18.7895 19.9445 18.5369 19.7623 18.3483ZM2.05534 8.05534C2.05534 6.86866 2.40724 5.70862 3.06653 4.72192C3.72582 3.73523 4.66289 2.96619 5.75924 2.51207C6.8556 2.05794 8.062 1.93912 9.22589 2.17063C10.3898 2.40214 11.4589 2.97359 12.298 3.8127C13.1371 4.65182 13.7085 5.72092 13.9401 6.8848C14.1716 8.04869 14.0527 9.25509 13.5986 10.3514C13.1445 11.4478 12.3755 12.3849 11.3888 13.0442C10.4021 13.7035 9.24203 14.0553 8.05534 14.0553C6.46458 14.0536 4.93947 13.4209 3.81463 12.2961C2.68979 11.1712 2.05709 9.64611 2.05534 8.05534Z" fill="black"/>
</svg>
