<svg width="60" height="45" viewBox="0 0 60 45" fill="none" xmlns="http://www.w3.org/2000/svg">
<path d="M12.7197 0C11.1561 0.872847 9.9334 2.35262 9.43331 4.21897L3.21282 27.4342C2.23125 31.0974 4.40519 34.8628 8.06845 35.8444L39.46 44.2557H8.67735C4.2334 44.2557 0.630859 40.6532 0.630859 36.2092V8.04649C0.630859 3.60254 4.2334 0 8.67735 0L12.7197 0Z" fill="#0066EB"/>
<path d="M20.2196 0L52.998 8.78294C56.6612 9.76451 58.8351 13.5299 57.8536 17.1931L51.6331 40.4083C51.1982 42.0315 50.2167 43.3623 48.9397 44.2557H51.3238C55.7677 44.2557 59.3703 40.6532 59.3703 36.2092V8.04649C59.3703 3.60254 55.7677 0 51.3238 0H20.2196Z" fill="#0066EB"/>
</svg>
