<svg width="49" height="37" viewBox="0 0 49 37" fill="none" xmlns="http://www.w3.org/2000/svg">
<path d="M10.6539 0C9.36866 0.717467 8.36364 1.93382 7.95257 3.46793L2.83942 22.5505C2.03258 25.5616 3.81953 28.6567 6.83068 29.4635L32.6341 36.3775H7.33118C3.67832 36.3775 0.717087 33.4163 0.717087 29.7634V6.6141C0.717087 2.96123 3.67832 0 7.33118 0L10.6539 0Z" fill="white"/>
<path d="M16.8187 0L43.7621 7.21945C46.7732 8.02628 48.5602 11.1214 47.7533 14.1325L42.6402 33.2151C42.2827 34.5493 41.4759 35.6432 40.4262 36.3775H42.3859C46.0388 36.3775 49 33.4163 49 29.7634V6.6141C49 2.96123 46.0388 0 42.3859 0H16.8187Z" fill="white"/>
</svg>
