<svg width="43" height="37" viewBox="0 0 43 37" fill="none" xmlns="http://www.w3.org/2000/svg">
<path d="M9.78577 1C9.23746 1 8.73772 1.17823 8.38249 1.53168C8.02727 1.88514 7.83339 2.39733 7.83339 2.94444V6.83333H4.90482C4.64926 6.83336 4.41675 7.06492 4.41673 7.31944V15.5833C3.41444 15.5833 2.39132 15.5833 1.39664 15.5833C1.1729 15.6259 0.996053 15.8426 1.00007 16.0694V25.7917C1.00009 26.0462 1.2326 26.2778 1.48816 26.2778H13.6905C16.6565 26.2778 19.0596 23.8845 19.0596 20.9306C19.0596 17.9766 16.6565 15.5833 13.6905 15.5833H5.39292V7.80555H38.0952C39.0526 7.80555 39.9149 7.42143 40.5357 6.78776V18.5C40.5321 18.7568 40.7659 18.993 41.0238 18.993C41.2817 18.993 41.5156 18.7568 41.5119 18.5C41.5119 13.7696 41.5119 9.01793 41.5119 4.29644C41.4527 2.47105 39.9422 1 38.0952 1H9.78577ZM9.78577 1.97222H38.0952C39.4292 1.97222 40.4948 3.0092 40.5357 4.32682C40.5349 4.35339 40.5357 4.37852 40.5357 4.40278C40.5357 5.75771 39.4557 6.83333 38.0952 6.83333H8.80958V2.94444C8.80958 2.61009 8.91276 2.37062 9.06888 2.21528C9.225 2.05994 9.45086 1.97222 9.78577 1.97222ZM1.97626 16.5556H13.6905C16.1326 16.5556 18.0834 18.4984 18.0834 20.9306C18.0834 23.3627 16.1326 25.3056 13.6905 25.3056H1.97626V16.5556ZM14.1786 19.9583C13.6453 19.9583 13.2024 20.3994 13.2024 20.9306C13.2024 21.4617 13.6453 21.9028 14.1786 21.9028C14.712 21.9028 15.1548 21.4617 15.1548 20.9306C15.1548 20.3994 14.712 19.9583 14.1786 19.9583ZM40.9628 20.9457C40.7282 20.9752 40.5339 21.1964 40.5357 21.4319V21.9028C40.5321 22.1596 40.7659 22.3958 41.0238 22.3958C41.2817 22.3958 41.5156 22.1596 41.5119 21.9028V21.4319C41.514 21.1558 41.2379 20.9113 40.9628 20.9457ZM35.1667 22.3889C31.3985 22.3889 28.3334 25.4416 28.3334 29.1944C28.3334 32.9473 31.3985 36 35.1667 36C38.9348 36 42 32.9473 42 29.1944C42 25.4416 38.9348 22.3889 35.1667 22.3889ZM35.1667 23.3611C38.4073 23.3611 41.0238 25.967 41.0238 29.1944C41.0238 32.4219 38.4073 35.0278 35.1667 35.0278C31.9261 35.0278 29.3095 32.4219 29.3095 29.1944C29.3095 25.967 31.9261 23.3611 35.1667 23.3611ZM32.6652 26.7487C32.2956 26.7845 32.1068 27.3288 32.3754 27.5842L35.792 30.987C35.9876 31.1928 36.3706 31.1694 36.5394 30.9414L38.0037 28.997C38.1578 28.79 38.1099 28.4625 37.903 28.3079C37.696 28.1533 37.3669 28.1993 37.2106 28.4045L36.0819 29.8932L33.077 26.9006C32.9736 26.7899 32.8161 26.7318 32.6652 26.7487ZM4.84381 28.207C4.60405 28.237 4.40733 28.4679 4.41673 28.7083V34.5417C4.41675 34.7962 4.64926 35.0278 4.90482 35.0278H27.3572C27.615 35.0314 27.8522 34.7985 27.8522 34.5417C27.8522 34.2848 27.615 34.0519 27.3572 34.0556H5.39292V28.7083C5.40395 28.4272 5.12402 28.1717 4.84381 28.207Z" fill="black" stroke="black" stroke-width="0.478143"/>
</svg>
