<svg width="36" height="36" viewBox="0 0 36 36" fill="none" xmlns="http://www.w3.org/2000/svg">
<path d="M27.657 31.7415C28.1075 31.7415 28.5129 31.3902 28.5129 30.9073H29.8642C29.8642 32.0927 28.8732 33.0585 27.657 33.0585C26.4408 33.0585 25.4499 32.0927 25.4499 30.9073H26.8012C26.8012 31.3902 27.1615 31.7415 27.657 31.7415Z" fill="black"/>
<path d="M7.02685 1.8878C7.02685 1.58049 6.75658 1.31707 6.44127 1.31707H-3.05176e-05V0H6.44127C7.47729 0 8.37817 0.834146 8.37817 1.8878V5.3122C12.7024 5.4439 16.8465 7.46341 19.8194 10.8439C23.9184 15.5415 28.5579 17.7366 30.3597 18.439C31.3506 18.8341 32.2515 19.361 32.9722 20.0195C35.5848 22.3024 36.0803 25.7707 35.9902 28.2732C35.9451 30.0293 34.5488 31.522 32.7921 31.7854C32.3867 34.2 30.2245 36 27.657 36C24.9994 36 22.7923 34.0683 22.477 31.5659H-3.05176e-05V30.2488H7.02685V1.8878ZM27.657 34.7268C29.7741 34.7268 31.5308 33.0146 31.5308 30.9512C31.5308 28.8878 29.7741 27.1756 27.657 27.1756C25.54 27.1756 23.7832 28.8878 23.7832 30.9512C23.7832 33.0146 25.54 34.7268 27.657 34.7268ZM8.37817 30.2927H22.477C22.8373 27.7902 24.9994 25.8585 27.657 25.8585C30.3597 25.8585 32.6119 27.878 32.8821 30.4683C33.8731 30.2049 34.6389 29.3268 34.6389 28.2732C34.6839 26.0341 34.2785 23.0049 32.0713 21.0293C31.4407 20.5024 30.72 20.0634 29.8642 19.7122C27.9723 18.9659 23.1076 16.639 18.7833 11.7659C16.0807 8.69268 12.297 6.84878 8.37817 6.71707V30.2927Z" fill="black"/>
<path d="M14.8645 12.2488H11.8916V18.4829H22.1617V19.8H11.8916V27.0439H10.5403V10.9317H14.8645V12.2488Z" fill="black"/>
</svg>
